<svg width="52" height="52" viewBox="0 0 52 52" fill="none" xmlns="http://www.w3.org/2000/svg">
<path d="M24.3164 5.26854C24.9309 4.92717 25.2382 4.75648 25.5635 4.68956C25.8515 4.63033 26.1485 4.63033 26.4365 4.68956C26.7618 4.75648 27.0691 4.92717 27.6836 5.26854L43.7169 14.1759C44.3659 14.5365 44.6903 14.7168 44.9266 14.9732C45.1357 15.2 45.2939 15.4688 45.3906 15.7617C45.5 16.0928 45.5 16.464 45.5 17.2064V34.7934C45.5 35.5358 45.5 35.907 45.3906 36.2381C45.2939 36.531 45.1357 36.7998 44.9266 37.0266C44.6903 37.283 44.3659 37.4633 43.7169 37.8238L27.6836 46.7313C27.0691 47.0726 26.7618 47.2433 26.4365 47.3102C26.1485 47.3695 25.8515 47.3695 25.5635 47.3102C25.2382 47.2433 24.9309 47.0726 24.3164 46.7313L8.28311 37.8238C7.63414 37.4633 7.30965 37.283 7.07337 37.0266C6.86434 36.7998 6.70615 36.531 6.60938 36.2381C6.5 35.907 6.5 35.5358 6.5 34.7934V17.2064C6.5 16.464 6.5 16.0928 6.60938 15.7617C6.70615 15.4688 6.86434 15.2 7.07337 14.9732C7.30965 14.7168 7.63414 14.5365 8.2831 14.176L24.3164 5.26854Z" stroke="#004EEB" stroke-width="4.33333" stroke-linecap="round" stroke-linejoin="round"/>
<path d="M29.1374 17.5455V35H25.4471V21.0483H25.3448L21.3477 23.554V20.2812L25.6687 17.5455H29.1374Z" fill="#004EEB"/>
</svg>
