<svg width="52" height="52" viewBox="0 0 52 52" fill="none" xmlns="http://www.w3.org/2000/svg">
<path d="M24.3164 5.26854C24.9309 4.92717 25.2382 4.75648 25.5635 4.68956C25.8515 4.63033 26.1485 4.63033 26.4365 4.68956C26.7618 4.75648 27.0691 4.92717 27.6836 5.26854L43.7169 14.1759C44.3659 14.5365 44.6903 14.7168 44.9266 14.9732C45.1357 15.2 45.2939 15.4688 45.3906 15.7617C45.5 16.0928 45.5 16.464 45.5 17.2064V34.7934C45.5 35.5358 45.5 35.907 45.3906 36.2381C45.2939 36.531 45.1357 36.7998 44.9266 37.0266C44.6903 37.283 44.3659 37.4633 43.7169 37.8238L27.6836 46.7313C27.0691 47.0726 26.7618 47.2433 26.4365 47.3102C26.1485 47.3695 25.8515 47.3695 25.5635 47.3102C25.2382 47.2433 24.9309 47.0726 24.3164 46.7313L8.28311 37.8238C7.63414 37.4633 7.30965 37.283 7.07337 37.0266C6.86434 36.7998 6.70615 36.531 6.60938 36.2381C6.5 35.907 6.5 35.5358 6.5 34.7934V17.2064C6.5 16.464 6.5 16.0928 6.60938 15.7617C6.70615 15.4688 6.86434 15.2 7.07337 14.9732C7.30965 14.7168 7.63414 14.5365 8.2831 14.176L24.3164 5.26854Z" stroke="#004EEB" stroke-width="4.33333" stroke-linecap="round" stroke-linejoin="round"/>
<path d="M19.8562 35V32.3409L26.0692 26.5881C26.5977 26.0767 27.0408 25.6165 27.3988 25.2074C27.7624 24.7983 28.038 24.3977 28.2255 24.0057C28.413 23.608 28.5067 23.179 28.5067 22.7188C28.5067 22.2074 28.3903 21.767 28.1573 21.3977C27.9244 21.0227 27.6062 20.7358 27.2028 20.5369C26.7994 20.3324 26.342 20.2301 25.8306 20.2301C25.2965 20.2301 24.8306 20.3381 24.4329 20.554C24.0352 20.7699 23.7283 21.0795 23.5124 21.483C23.2965 21.8864 23.1886 22.3665 23.1886 22.9233H19.6857C19.6857 21.7812 19.9442 20.7898 20.4613 19.9489C20.9783 19.108 21.7028 18.4574 22.6346 17.9972C23.5664 17.5369 24.6403 17.3068 25.8562 17.3068C27.1062 17.3068 28.1942 17.5284 29.1204 17.9716C30.0522 18.4091 30.7766 19.017 31.2937 19.7955C31.8107 20.5739 32.0692 21.4659 32.0692 22.4716C32.0692 23.1307 31.9386 23.7812 31.6772 24.4233C31.4215 25.0653 30.9641 25.7784 30.305 26.5625C29.646 27.3409 28.717 28.2756 27.5181 29.3665L24.9698 31.8636V31.983H32.2994V35H19.8562Z" fill="#004EEB"/>
</svg>
