<svg width="52" height="52" viewBox="0 0 52 52" fill="none" xmlns="http://www.w3.org/2000/svg">
<path d="M24.3164 5.26854C24.9309 4.92717 25.2382 4.75648 25.5635 4.68956C25.8515 4.63033 26.1485 4.63033 26.4365 4.68956C26.7618 4.75648 27.0691 4.92717 27.6836 5.26854L43.7169 14.1759C44.3659 14.5365 44.6903 14.7168 44.9266 14.9732C45.1357 15.2 45.2939 15.4688 45.3906 15.7617C45.5 16.0928 45.5 16.464 45.5 17.2064V34.7934C45.5 35.5358 45.5 35.907 45.3906 36.2381C45.2939 36.531 45.1357 36.7998 44.9266 37.0266C44.6903 37.283 44.3659 37.4633 43.7169 37.8238L27.6836 46.7313C27.0691 47.0726 26.7618 47.2433 26.4365 47.3102C26.1485 47.3695 25.8515 47.3695 25.5635 47.3102C25.2382 47.2433 24.9309 47.0726 24.3164 46.7313L8.28311 37.8238C7.63414 37.4633 7.30965 37.283 7.07337 37.0266C6.86434 36.7998 6.70615 36.531 6.60938 36.2381C6.5 35.907 6.5 35.5358 6.5 34.7934V17.2064C6.5 16.464 6.5 16.0928 6.60938 15.7617C6.70615 15.4688 6.86434 15.2 7.07337 14.9732C7.30965 14.7168 7.63414 14.5365 8.2831 14.176L24.3164 5.26854Z" stroke="#004EEB" stroke-width="4.33333" stroke-linecap="round" stroke-linejoin="round"/>
<path d="M25.9563 35.2386C24.6836 35.2386 23.5501 35.0199 22.5558 34.5824C21.5671 34.1392 20.7859 33.5312 20.212 32.7585C19.6438 31.9801 19.3512 31.0824 19.3342 30.0653H23.0501C23.0728 30.4915 23.212 30.8665 23.4677 31.1903C23.729 31.5085 24.0756 31.7557 24.5075 31.9318C24.9393 32.108 25.4251 32.196 25.9648 32.196C26.5273 32.196 27.0245 32.0966 27.4563 31.8977C27.8881 31.6989 28.2262 31.4233 28.4705 31.071C28.7148 30.7187 28.837 30.3125 28.837 29.8523C28.837 29.3864 28.7063 28.9744 28.445 28.6165C28.1893 28.2528 27.82 27.9687 27.337 27.7642C26.8597 27.5597 26.2915 27.4574 25.6325 27.4574H24.0046V24.7472H25.6325C26.1893 24.7472 26.6808 24.6506 27.1069 24.4574C27.5387 24.2642 27.8739 23.9972 28.1126 23.6562C28.3512 23.3097 28.4705 22.9062 28.4705 22.446C28.4705 22.0085 28.3654 21.625 28.1552 21.2955C27.9506 20.9602 27.6609 20.6989 27.2859 20.5114C26.9165 20.3239 26.4847 20.2301 25.9904 20.2301C25.4904 20.2301 25.033 20.321 24.6183 20.5028C24.2035 20.679 23.8711 20.9318 23.6211 21.2614C23.3711 21.5909 23.2376 21.9773 23.2205 22.4205H19.6836C19.7006 21.4148 19.9876 20.5284 20.5444 19.7614C21.1012 18.9943 21.8512 18.3949 22.7944 17.9631C23.7433 17.5256 24.8143 17.3068 26.0075 17.3068C27.212 17.3068 28.266 17.5256 29.1694 17.9631C30.0728 18.4006 30.7745 18.9915 31.2745 19.7358C31.7802 20.4744 32.0302 21.304 32.0245 22.2244C32.0302 23.2017 31.7262 24.017 31.1126 24.6705C30.5046 25.3239 29.712 25.7386 28.7347 25.9148V26.0511C30.0188 26.2159 30.9961 26.6619 31.6665 27.3892C32.3427 28.1108 32.6779 29.0142 32.6722 30.0994C32.6779 31.0938 32.391 31.9773 31.8114 32.75C31.2376 33.5227 30.445 34.1307 29.4336 34.5739C28.4222 35.017 27.2631 35.2386 25.9563 35.2386Z" fill="#004EEB"/>
</svg>
