<svg width="52" height="52" viewBox="0 0 52 52" fill="none" xmlns="http://www.w3.org/2000/svg">
<path d="M24.3164 5.26856C24.9309 4.92718 25.2382 4.75649 25.5635 4.68958C25.8515 4.63035 26.1485 4.63035 26.4365 4.68958C26.7618 4.75649 27.0691 4.92718 27.6836 5.26856L43.7169 14.176C44.3659 14.5365 44.6903 14.7168 44.9266 14.9732C45.1357 15.2 45.2939 15.4688 45.3906 15.7617C45.5 16.0928 45.5 16.464 45.5 17.2064V34.7934C45.5 35.5358 45.5 35.907 45.3906 36.2381C45.2939 36.531 45.1357 36.7998 44.9266 37.0267C44.6903 37.2831 44.3659 37.4633 43.7169 37.8239L27.6836 46.7313C27.0691 47.0726 26.7618 47.2433 26.4365 47.3102C26.1485 47.3695 25.8515 47.3695 25.5635 47.3102C25.2382 47.2433 24.9309 47.0726 24.3164 46.7313L8.28311 37.8239C7.63414 37.4633 7.30965 37.2831 7.07337 37.0267C6.86434 36.7998 6.70615 36.531 6.60938 36.2381C6.5 35.907 6.5 35.5358 6.5 34.7934V17.2064C6.5 16.464 6.5 16.0928 6.60938 15.7617C6.70615 15.4688 6.86434 15.2 7.07337 14.9732C7.30965 14.7168 7.63414 14.5365 8.2831 14.176L24.3164 5.26856Z" stroke="#004EEB" stroke-width="4.33333" stroke-linecap="round" stroke-linejoin="round"/>
<path d="M26.0554 35.2386C24.8509 35.2386 23.777 35.017 22.8338 34.5739C21.8963 34.1307 21.152 33.5199 20.6009 32.7415C20.0497 31.9631 19.7628 31.071 19.7401 30.0653H23.3196C23.3594 30.7415 23.6435 31.2898 24.1719 31.7102C24.7003 32.1307 25.3281 32.3409 26.0554 32.3409C26.6349 32.3409 27.1463 32.2131 27.5895 31.9574C28.0384 31.696 28.3878 31.3352 28.6378 30.875C28.8935 30.4091 29.0213 29.875 29.0213 29.2727C29.0213 28.6591 28.8906 28.1193 28.6293 27.6534C28.3736 27.1875 28.0185 26.8239 27.5639 26.5625C27.1094 26.3011 26.5895 26.1676 26.0043 26.1619C25.4929 26.1619 24.9957 26.267 24.5128 26.4773C24.0355 26.6875 23.6634 26.9744 23.3963 27.3381L20.1151 26.75L20.9418 17.5455H31.6122V20.5625H23.9844L23.5327 24.9347H23.6349C23.9418 24.5028 24.4048 24.1449 25.0241 23.8608C25.6435 23.5767 26.3366 23.4347 27.1037 23.4347C28.1548 23.4347 29.0923 23.6818 29.9162 24.1761C30.7401 24.6705 31.3906 25.3494 31.8679 26.2131C32.3452 27.071 32.581 28.0597 32.5753 29.179C32.581 30.3551 32.3082 31.4006 31.7571 32.3153C31.2116 33.2244 30.4474 33.9403 29.4645 34.4631C28.4872 34.9801 27.3509 35.2386 26.0554 35.2386Z" fill="#004EEB"/>
</svg>
