<svg width="52" height="52" viewBox="0 0 52 52" fill="none" xmlns="http://www.w3.org/2000/svg">
<path d="M19.5 23.8333L26 30.3333L47.6667 8.66667M34.6667 6.5H16.9C13.2597 6.5 11.4395 6.5 10.0491 7.20846C8.82601 7.83163 7.83163 8.82601 7.20846 10.0491C6.5 11.4395 6.5 13.2597 6.5 16.9V35.1C6.5 38.7403 6.5 40.5605 7.20846 41.9509C7.83163 43.174 8.82601 44.1684 10.0491 44.7915C11.4395 45.5 13.2597 45.5 16.9 45.5H35.1C38.7403 45.5 40.5605 45.5 41.9509 44.7915C43.174 44.1684 44.1684 43.174 44.7915 41.9509C45.5 40.5605 45.5 38.7403 45.5 35.1V26" stroke="#004EEB" stroke-width="4.33333" stroke-linecap="round" stroke-linejoin="round"/>
</svg>
