<svg width="52" height="52" viewBox="0 0 52 52" fill="none" xmlns="http://www.w3.org/2000/svg">
<path d="M26.0006 44.3564C28.3006 46.4149 31.3378 47.6666 34.6673 47.6666C41.847 47.6666 47.6673 41.8463 47.6673 34.6666C47.6673 28.6716 43.6093 23.6244 38.0903 22.122M13.911 22.1219C8.39201 23.6243 4.33398 28.6716 4.33398 34.6666C4.33398 41.8463 10.1543 47.6666 17.334 47.6666C24.5137 47.6666 30.334 41.8463 30.334 34.6666C30.334 32.9755 30.0111 31.3599 29.4236 29.8779M39.0007 17.3333C39.0007 24.513 33.1804 30.3333 26.0007 30.3333C18.8209 30.3333 13.0007 24.513 13.0007 17.3333C13.0007 10.1536 18.8209 4.33325 26.0007 4.33325C33.1804 4.33325 39.0007 10.1536 39.0007 17.3333Z" stroke="#004EEB" stroke-width="4.33333" stroke-linecap="round" stroke-linejoin="round"/>
</svg>
