<svg width="52" height="52" viewBox="0 0 52 52" fill="none" xmlns="http://www.w3.org/2000/svg">
<path d="M9.75065 47.6667V36.8334M9.75065 15.1667V4.33337M4.33398 9.75004H15.1673M4.33398 42.25H15.1673M28.1673 6.50004L24.4099 16.2692C23.7989 17.8579 23.4934 18.6522 23.0183 19.3204C22.5972 19.9126 22.0798 20.43 21.4877 20.851C20.8195 21.3261 20.0252 21.6316 18.4365 22.2427L8.66732 26L18.4365 29.7574C20.0252 30.3685 20.8195 30.674 21.4877 31.1491C22.0798 31.5701 22.5972 32.0875 23.0183 32.6797C23.4934 33.3478 23.7989 34.1422 24.4099 35.7308L28.1673 45.5L31.9247 35.7308C32.5357 34.1422 32.8412 33.3478 33.3163 32.6797C33.7374 32.0875 34.2548 31.5701 34.847 31.1491C35.5151 30.674 36.3095 30.3685 37.8981 29.7574L47.6673 26L37.8981 22.2427C36.3095 21.6316 35.5151 21.3261 34.847 20.851C34.2548 20.43 33.7374 19.9126 33.3163 19.3204C32.8412 18.6522 32.5357 17.8579 31.9247 16.2692L28.1673 6.50004Z" stroke="#004EEB" stroke-width="4.33333" stroke-linecap="round" stroke-linejoin="round"/>
</svg>
