<svg width="52" height="52" viewBox="0 0 52 52" fill="none" xmlns="http://www.w3.org/2000/svg">
<path d="M15.1667 18.4167H26M15.1667 26H32.5M20.9815 39H35.1C38.7403 39 40.5605 39 41.9509 38.2915C43.174 37.6684 44.1684 36.674 44.7915 35.4509C45.5 34.0605 45.5 32.2403 45.5 28.6V16.9C45.5 13.2597 45.5 11.4395 44.7915 10.0491C44.1684 8.82601 43.174 7.83163 41.9509 7.20846C40.5605 6.5 38.7403 6.5 35.1 6.5H16.9C13.2597 6.5 11.4395 6.5 10.0491 7.20846C8.82601 7.83163 7.83163 8.82601 7.20846 10.0491C6.5 11.4395 6.5 13.2597 6.5 16.9V44.0603C6.5 45.2148 6.5 45.792 6.73666 46.0885C6.94248 46.3463 7.25458 46.4963 7.5845 46.496C7.96386 46.4956 8.41462 46.135 9.31614 45.4138L14.4846 41.279C15.5405 40.4343 16.0684 40.012 16.6562 39.7116C17.1778 39.4452 17.7329 39.2505 18.3066 39.1327C18.9533 39 19.6293 39 20.9815 39Z" stroke="#004EEB" stroke-width="4.33333" stroke-linecap="round" stroke-linejoin="round"/>
</svg>
