<svg width="86" height="50" viewBox="0 0 86 50" fill="none" xmlns="http://www.w3.org/2000/svg">
<path d="M61.8935 13.1901C62.1636 12.79 62.5337 12.465 63.0038 12.2149C63.4839 11.9648 64.0291 11.8398 64.6393 11.8398C65.3494 11.8398 65.9896 12.0148 66.5598 12.3649C67.1399 12.715 67.595 13.2151 67.9251 13.8653C68.2652 14.5055 68.4353 15.2507 68.4353 16.1009C68.4353 16.9511 68.2652 17.7063 67.9251 18.3665C67.595 19.0167 67.1399 19.5218 66.5598 19.8819C65.9896 20.242 65.3494 20.4221 64.6393 20.4221C64.0191 20.4221 63.4739 20.302 63.0038 20.062C62.5437 19.8119 62.1736 19.4918 61.8935 19.1017V20.287H59.793V9.18408H61.8935V13.1901ZM66.2897 16.1009C66.2897 15.6008 66.1847 15.1707 65.9746 14.8106C65.7746 14.4405 65.5045 14.1604 65.1644 13.9703C64.8343 13.7803 64.4742 13.6853 64.0841 13.6853C63.704 13.6853 63.3439 13.7853 63.0038 13.9854C62.6737 14.1754 62.4037 14.4555 62.1936 14.8256C61.9936 15.1957 61.8935 15.6308 61.8935 16.1309C61.8935 16.6311 61.9936 17.0662 62.1936 17.4363C62.4037 17.8064 62.6737 18.0914 63.0038 18.2915C63.3439 18.4815 63.704 18.5766 64.0841 18.5766C64.4742 18.5766 64.8343 18.4765 65.1644 18.2765C65.5045 18.0764 65.7746 17.7914 65.9746 17.4213C66.1847 17.0512 66.2897 16.611 66.2897 16.1009Z" fill="white"/>
<path d="M58.2594 15.9509C58.2594 16.251 58.2394 16.5211 58.1994 16.7611H52.1228C52.1728 17.3613 52.3828 17.8314 52.7529 18.1715C53.123 18.5116 53.5781 18.6817 54.1183 18.6817C54.8985 18.6817 55.4536 18.3466 55.7837 17.6764H58.0493C57.8093 18.4766 57.3491 19.1368 56.669 19.6569C55.9888 20.167 55.1536 20.4221 54.1633 20.4221C53.3631 20.4221 52.6429 20.2471 52.0027 19.897C51.3726 19.5369 50.8774 19.0317 50.5173 18.3816C50.1672 17.7314 49.9922 16.9812 49.9922 16.131C49.9922 15.2708 50.1672 14.5156 50.5173 13.8654C50.8674 13.2152 51.3575 12.7151 51.9877 12.365C52.6179 12.0149 53.3431 11.8398 54.1633 11.8398C54.9535 11.8398 55.6587 12.0099 56.2789 12.35C56.909 12.6901 57.3941 13.1752 57.7342 13.8054C58.0843 14.4255 58.2594 15.1407 58.2594 15.9509ZM56.0838 15.3508C56.0738 14.8106 55.8787 14.3805 55.4986 14.0604C55.1185 13.7303 54.6534 13.5653 54.1033 13.5653C53.5831 13.5653 53.143 13.7253 52.7829 14.0454C52.4328 14.3555 52.2178 14.7906 52.1378 15.3508H56.0838Z" fill="white"/>
<path d="M49.1609 9.81396L46.2351 20.2867H43.7595L41.794 12.8298L39.7384 20.2867L37.2778 20.3017L34.457 9.81396H36.7076L38.5531 17.9461L40.6837 9.81396H43.0243L45.0348 17.9011L46.8953 9.81396H49.1609Z" fill="white"/>
<path d="M84.4048 26.9995L75.5024 47.705H70.176L73.5269 40.4281L67.7754 26.9995H73.2268L76.1776 34.9516L79.0284 26.9995H84.4048Z" fill="white"/>
<path d="M51.5039 34.0011C51.5039 32.5507 51.7623 31.2837 52.2791 30.2001C52.8126 29.1165 53.5294 28.2829 54.4297 27.6994C55.3466 27.116 56.3635 26.8242 57.4805 26.8242C58.4474 26.8242 59.281 27.0159 59.9812 27.3994C60.6813 27.7828 61.2231 28.2996 61.6066 28.9498V26.9993H66.5079V41.028H61.6066V39.0775C61.2231 39.7276 60.673 40.2444 59.9561 40.6279C59.256 41.0113 58.4307 41.203 57.4805 41.203C56.3635 41.203 55.3466 40.9113 54.4297 40.3278C53.5294 39.7443 52.8126 38.9108 52.2791 37.8271C51.7623 36.7268 51.5039 35.4515 51.5039 34.0011ZM61.6066 34.0011C61.6066 33.1009 61.3565 32.3924 60.8564 31.8756C60.3729 31.3588 59.7728 31.1004 59.0559 31.1004C58.3224 31.1004 57.7139 31.3588 57.2304 31.8756C56.747 32.3757 56.5052 33.0842 56.5052 34.0011C56.5052 34.9014 56.747 35.6182 57.2304 36.1517C57.7139 36.6685 58.3224 36.9269 59.0559 36.9269C59.7728 36.9269 60.3729 36.6685 60.8564 36.1517C61.3565 35.6349 61.6066 34.918 61.6066 34.0011Z" fill="white"/>
<path d="M46.7803 31.9757C47.8139 32.2091 48.6308 32.7259 49.231 33.5261C49.8478 34.3097 50.1562 35.2099 50.1562 36.2268C50.1562 37.7272 49.6394 38.9025 48.6058 39.7528C47.5722 40.603 46.1218 41.0281 44.2547 41.0281H35.5273V23.3984H43.9796C45.7801 23.3984 47.1888 23.7985 48.2057 24.5988C49.2393 25.399 49.7561 26.5243 49.7561 27.9747C49.7561 29.0083 49.481 29.8752 48.9309 30.5753C48.3974 31.2589 47.6806 31.7256 46.7803 31.9757ZM40.4286 30.4003H42.9043C44.138 30.4003 44.7548 29.8918 44.7548 28.8749C44.7548 27.8246 44.138 27.2995 42.9043 27.2995H40.4286V30.4003ZM43.2794 37.0771C44.5131 37.0771 45.1299 36.5603 45.1299 35.5267C45.1299 34.9932 44.9632 34.5847 44.6298 34.3013C44.313 34.0179 43.8546 33.8762 43.2544 33.8762H40.4286V37.0771H43.2794Z" fill="white"/>
<path fill-rule="evenodd" clip-rule="evenodd" d="M10.3775 7.25166C8.65114 7.25166 7.25166 8.65114 7.25166 10.3775V32.9066C7.25166 37.8903 11.2918 41.9305 16.2756 41.9305C21.2594 41.9305 25.2996 37.8903 25.2996 32.9066C25.2996 27.9884 21.3644 23.9886 16.4722 23.8847C13.7682 23.8273 12.1661 20.5187 14.2053 18.4002L17.1765 15.3135H10.3834C9.6929 15.3135 9.13311 14.7538 9.13311 14.0632V10.3122C9.13311 9.62169 9.6929 9.06189 10.3834 9.06189H24.3929C27.1982 9.06189 28.6306 12.4287 26.6851 14.4499L22.3954 18.9064C27.7856 21.2658 31.5512 26.6462 31.5512 32.9066C31.5512 41.343 24.7121 48.1822 16.2756 48.1822C7.83912 48.1822 1 41.343 1 32.9066V10.3775C1 5.19844 5.19844 1 10.3775 1H29.1232C29.8137 1 30.3735 1.55979 30.3735 2.25033V6.00132C30.3735 6.69186 29.8137 7.25166 29.1232 7.25166H10.3775Z" fill="#004EEB"/>
</svg>
