<svg width="151" height="148" viewBox="0 0 151 148" fill="none" xmlns="http://www.w3.org/2000/svg">
<path d="M136.012 119.426L125.24 130.535C115.157 140.933 100.569 147.23 83.2803 147.23C45.3066 147.23 8.68658 116.858 1.48432 79.3889C-2.43754 58.986 3.17485 40.6862 15.2338 28.2503L26.0063 17.1411C13.9474 29.577 8.33497 47.8768 12.2568 68.2797C19.4591 105.748 56.0791 136.121 94.0528 136.121C111.342 136.121 125.93 129.823 136.012 119.426Z" fill="#8AE8FF"/>
<path d="M94.054 136.121C90.9848 136.121 87.9295 135.923 84.8952 135.541C73.4901 134.093 62.4129 130.023 52.4588 123.973C43.3697 118.463 35.2222 111.3 28.6025 102.99C27.1655 101.181 25.7913 99.3234 24.5078 97.4115C22.8964 95.0285 21.4107 92.5703 20.0644 90.0506C16.4022 83.2156 13.7236 75.8957 12.2587 68.2821C11.9867 66.8619 11.7565 65.4484 11.5821 64.0554C6.96427 28.5553 31.4345 0.443359 67.9725 0.443359C68.4887 0.443359 68.9978 0.450193 69.514 0.457028C81.0028 0.70967 92.3241 3.70729 102.704 8.82165C111.012 12.9049 118.72 18.3471 125.43 24.8066C128.513 27.7769 131.38 30.9589 134.003 34.3184C135.9 36.7492 137.672 39.2825 139.298 41.8978C140.958 44.5744 142.471 47.3399 143.811 50.1804C146.531 55.9435 148.554 62.0138 149.761 68.2821C156.967 105.749 132.022 136.121 94.054 136.121Z" fill="#2563EB"/>
<path d="M92.1003 125.106H91.9329C80.2489 125.106 68.7113 121.672 58.4991 115.765C49.3681 110.494 41.2904 103.249 35.1031 94.7206C29.3692 86.8272 25.2536 77.8275 23.419 68.2816C22.3169 62.5595 22.1146 57.0354 22.7215 51.8323C24.9536 32.1533 38.5839 16.9877 58.3666 12.6927C62.0706 11.887 65.9908 11.4636 70.0925 11.4636C79.063 11.4636 87.9359 13.4848 96.1949 17.0901C104.796 20.8457 112.727 26.3219 119.389 33.0205C127.152 40.8183 133.2 50.2754 136.604 60.6203C137.427 63.1262 138.097 65.68 138.599 68.2816C144.612 99.6096 123.811 125.018 92.1003 125.106Z" fill="#2563EB"/>
<path fill-rule="evenodd" clip-rule="evenodd" d="M65.1305 40.6515C62.0605 40.9189 60.1138 43.5252 60.7824 46.4729L69.5077 84.9408C71.4378 93.4505 80.1872 99.7233 89.0499 98.9514C97.9126 98.1796 103.533 90.6554 101.602 82.1457C99.6976 73.7481 91.1507 67.5279 82.4105 68.1082C77.5797 68.4289 73.4494 63.0276 76.2552 59.0947L80.3434 53.3641L68.5729 54.3891C67.1739 54.5109 65.788 53.4995 65.4774 52.1301L64.1811 46.4148C63.8705 45.0453 64.7527 43.8364 66.1517 43.7146L90.7553 41.5719C95.744 41.1374 99.5952 46.6644 96.9183 50.4168L91.0158 58.6905C101.515 61.8844 110.295 70.4881 112.72 81.1776C115.987 95.5827 106.474 108.319 91.4711 109.626C76.4684 110.933 61.6577 100.314 58.3903 85.9089L49.665 47.441C47.6592 38.5979 53.4993 30.779 62.7092 29.9769L95.7353 27.1008C97.1342 26.979 98.5201 27.9904 98.8307 29.3598L100.127 35.0751C100.438 36.4446 99.5554 37.6535 98.1565 37.7754L65.1305 40.6515Z" fill="#111827"/>
<path d="M91.6646 125.99C91.4693 125.997 91.274 125.997 91.0787 125.997C79.4923 125.997 68.0593 122.624 57.9238 116.813C48.7859 111.575 40.6942 104.365 34.486 95.8772C28.6684 87.936 24.497 78.8681 22.6485 69.2402C21.5742 63.6683 21.351 58.2808 21.8951 53.1938C23.0042 42.6987 27.357 33.4601 34.1512 26.4543L38.19 22.2891C31.4586 29.2266 25.1183 41.5064 23.9604 51.8786C23.3744 57.0544 23.5837 62.5443 24.6789 68.2323C26.4925 77.6621 30.5244 86.5457 36.1467 94.3709C42.2503 102.858 50.2233 110.09 59.2497 115.388C69.3991 121.356 80.8739 124.873 92.5301 124.982C92.7254 124.989 92.9137 124.989 93.109 124.989C107.576 124.989 121.792 116.56 130.225 107.861L126.187 112.033C117.858 120.616 105.874 125.853 91.6646 125.99Z" fill="#EBF1FF"/>
<path d="M144.102 73.077C144.312 86.1532 139.687 97.6861 131.574 106.051L127.535 110.223C135.181 102.336 139.729 91.6294 140.05 79.4751C140.161 75.5899 139.833 71.5612 139.038 67.4301C137.755 60.752 135.355 54.3471 132.063 48.4065C130.842 46.1874 129.496 44.0296 128.031 41.9538C119.283 29.4991 106.532 19.6664 92.2949 14.552C85.3264 12.0461 77.995 10.6736 70.608 10.6736C56.1407 10.6736 43.9335 15.945 35.5 24.6442L39.5388 20.4789C47.9723 11.7797 60.1795 6.5083 74.6468 6.5083C81.6921 6.5083 88.6816 7.75788 95.3572 10.0453C109.532 14.9003 122.297 24.4257 131.205 36.5936C132.823 38.7923 134.309 41.073 135.648 43.4287C139.171 49.6015 141.738 56.2864 143.077 63.2648C143.719 66.6107 144.054 69.8882 144.102 73.077Z" fill="#EBF1FF"/>
<path d="M135.767 119.752L124.997 130.862C114.91 141.261 100.324 147.557 83.0321 147.557C80.9394 147.557 78.8467 147.461 76.768 147.284C65.4048 146.294 54.3137 142.675 44.248 137.055C34.3078 131.504 25.3651 123.999 18.1664 115.157C13.6392 109.599 9.80268 103.515 6.83113 97.0482C6.13358 95.5324 5.48481 93.9892 4.88492 92.4255C3.30145 88.3149 2.0738 84.0677 1.23673 79.7181C1.14604 79.2538 1.06233 78.7895 0.985607 78.3252C-2.42545 58.4822 3.20383 40.7287 14.9855 28.5744L25.7628 17.4648C14.5391 29.0388 8.90284 45.6861 11.3373 64.3818C11.5117 65.7748 11.7419 67.1883 12.014 68.6085C12.9417 73.4156 14.3438 78.0998 16.1783 82.6201C16.5829 83.6239 17.0084 84.6276 17.4619 85.6177C20.3218 91.9202 24.0119 97.8676 28.3577 103.317C34.9775 111.627 43.1249 118.789 52.2141 124.3C62.1682 130.35 73.2453 134.419 84.6504 135.867C87.6847 136.249 90.74 136.447 93.8092 136.447C111.095 136.447 125.688 130.152 135.767 119.752Z" fill="#1F418A"/>
<path d="M131.077 106.759L127.038 110.932C134.681 103.046 139.229 92.3385 139.55 80.1843C139.661 76.2983 139.334 72.2684 138.54 68.1387C137.256 61.4614 134.855 55.057 131.562 49.1164C130.342 46.8946 128.996 44.7373 127.533 42.6622C118.783 30.2086 106.034 20.376 91.7946 15.2602C84.8264 12.7536 77.4952 11.3829 70.1102 11.3829C55.6429 11.3829 43.4333 16.6543 35.002 25.3539L39.0407 21.1861C47.4723 12.4894 59.6818 7.21802 74.1491 7.21802C81.1923 7.21802 88.1816 8.46543 94.859 10.7548C109.032 15.6094 121.797 25.1338 130.705 37.3027C132.324 39.5011 133.808 41.7816 135.149 44.1385C138.672 50.311 141.238 56.9942 142.579 63.9738C143.22 67.3199 143.553 70.5954 143.604 73.7858C143.814 86.8617 139.187 98.3936 131.077 106.759Z" fill="#11192A"/>
<path fill-rule="evenodd" clip-rule="evenodd" d="M66.4332 39.9823C63.3632 40.2497 61.4165 42.856 62.0851 45.8037L70.8104 84.2716C72.7406 92.7813 81.4899 99.0541 90.3526 98.2822C99.2153 97.5104 104.835 89.9863 102.905 81.4765C101 73.0789 92.4534 66.8587 83.7132 67.439C78.8825 67.7597 74.7522 62.3584 77.5579 58.4255L81.6462 52.6949L69.8756 53.7199C68.4767 53.8418 67.0908 52.8303 66.7802 51.4609L65.4838 45.7456C65.1732 44.3761 66.0555 43.1672 67.4544 43.0454L92.0581 40.9027C97.0468 40.4683 100.898 45.9952 98.221 49.7476L92.3185 58.0213C102.818 61.2152 111.598 69.8189 114.022 80.5084C117.29 94.9135 107.776 107.65 92.7738 108.957C77.7712 110.263 62.9604 99.6449 59.693 85.2398L50.9677 46.7719C48.962 37.9288 54.8021 30.1098 64.012 29.3077L97.038 26.4316C98.437 26.3098 99.8228 27.3212 100.133 28.6906L101.43 34.4059C101.74 35.7754 100.858 36.9843 99.4592 37.1062L66.4332 39.9823Z" fill="white"/>
</svg>
