<svg width="52" height="52" viewBox="0 0 52 52" fill="none" xmlns="http://www.w3.org/2000/svg">
<path d="M18.3393 18.3396L10.679 10.6793M10.679 41.3206L18.3394 33.6603M33.66 33.6602L41.3203 41.3205M41.3203 10.6792L33.66 18.3396M47.6663 25.9999C47.6663 37.9661 37.9658 47.6666 25.9997 47.6666C14.0335 47.6666 4.33301 37.9661 4.33301 25.9999C4.33301 14.0337 14.0335 4.33325 25.9997 4.33325C37.9658 4.33325 47.6663 14.0337 47.6663 25.9999ZM36.833 25.9999C36.833 31.983 31.9828 36.8333 25.9997 36.8333C20.0166 36.8333 15.1663 31.983 15.1663 25.9999C15.1663 20.0168 20.0166 15.1666 25.9997 15.1666C31.9828 15.1666 36.833 20.0168 36.833 25.9999Z" stroke="#004EEB" stroke-width="4.33333" stroke-linecap="round" stroke-linejoin="round"/>
</svg>
