<svg width="52" height="52" viewBox="0 0 52 52" fill="none" xmlns="http://www.w3.org/2000/svg">
<path d="M13.0007 12.9999L17.334 8.66659M17.334 8.66659L13.0007 4.33325M17.334 8.66659H13.0007C8.21418 8.66659 4.33398 12.5468 4.33398 17.3333M39.0007 38.9999L34.6673 43.3333M34.6673 43.3333L39.0007 47.6666M34.6673 43.3333H39.0007C43.7871 43.3333 47.6673 39.4531 47.6673 34.6666M29.0712 29.0705C30.7661 29.88 32.6638 30.3333 34.6673 30.3333C41.847 30.3333 47.6673 24.513 47.6673 17.3333C47.6673 10.1536 41.847 4.33325 34.6673 4.33325C27.4876 4.33325 21.6673 10.1536 21.6673 17.3333C21.6673 19.3368 22.1206 21.2345 22.9301 22.9294M30.334 34.6666C30.334 41.8463 24.5137 47.6666 17.334 47.6666C10.1543 47.6666 4.33398 41.8463 4.33398 34.6666C4.33398 27.4869 10.1543 21.6666 17.334 21.6666C24.5137 21.6666 30.334 27.4869 30.334 34.6666Z" stroke="#004EEB" stroke-width="4.33333" stroke-linecap="round" stroke-linejoin="round"/>
</svg>
