<svg width="24" height="24" viewBox="0 0 24 24" fill="none" xmlns="http://www.w3.org/2000/svg">
<path fill-rule="evenodd" clip-rule="evenodd" d="M2.50466 10.8087C8.38009 8.24887 12.298 6.56128 14.2583 5.74592C19.8554 3.4179 21.0184 3.0135 21.7764 3.00014C21.9432 2.99721 22.316 3.03852 22.5574 3.23446C22.7613 3.39991 22.8174 3.62341 22.8443 3.78027C22.8711 3.93713 22.9045 4.29447 22.878 4.57368C22.5747 7.76057 21.2622 15.4943 20.5946 19.0637C20.312 20.574 19.7558 21.0804 19.2172 21.13C18.0468 21.2377 17.158 20.3565 16.0244 19.6134C14.2506 18.4506 13.2485 17.7268 11.5267 16.5921C9.53678 15.2808 10.8267 14.5601 11.9608 13.3823C12.2575 13.074 17.4144 8.3835 17.5142 7.95799C17.5267 7.90478 17.5382 7.70641 17.4204 7.60167C17.3026 7.49692 17.1286 7.53274 17.0031 7.56123C16.8252 7.60161 13.9914 9.47461 8.50186 13.1802C7.69751 13.7326 6.96895 14.0017 6.31619 13.9876C5.59658 13.972 4.21232 13.5807 3.18327 13.2462C1.9211 12.8359 0.917951 12.619 1.0053 11.9222C1.0508 11.5593 1.55059 11.1881 2.50466 10.8087Z" fill="#004EEB"/>
</svg>
