<svg width="18" height="18" viewBox="0 0 18 18" fill="none" xmlns="http://www.w3.org/2000/svg">
<g id="wallet-04">
<path id="Icon" d="M15 7.125V5.4C15 4.55992 15 4.13988 14.8365 3.81902C14.6927 3.53677 14.4632 3.3073 14.181 3.16349C13.8601 3 13.4401 3 12.6 3H3.9C3.05992 3 2.63988 3 2.31901 3.16349C2.03677 3.3073 1.8073 3.53677 1.66349 3.81901C1.5 4.13988 1.5 4.55992 1.5 5.4V12.6C1.5 13.4401 1.5 13.8601 1.66349 14.181C1.8073 14.4632 2.03677 14.6927 2.31901 14.8365C2.63988 15 3.05992 15 3.9 15L12.6 15C13.4401 15 13.8601 15 14.181 14.8365C14.4632 14.6927 14.6927 14.4632 14.8365 14.181C15 13.8601 15 13.4401 15 12.6V10.875M11.25 9C11.25 8.65151 11.25 8.47726 11.2788 8.33236C11.3972 7.73733 11.8623 7.27218 12.4574 7.15382C12.6023 7.125 12.7765 7.125 13.125 7.125H14.625C14.9735 7.125 15.1477 7.125 15.2926 7.15382C15.8877 7.27218 16.3528 7.73733 16.4712 8.33236C16.5 8.47726 16.5 8.65151 16.5 9C16.5 9.34849 16.5 9.52274 16.4712 9.66764C16.3528 10.2627 15.8877 10.7278 15.2926 10.8462C15.1477 10.875 14.9735 10.875 14.625 10.875H13.125C12.7765 10.875 12.6023 10.875 12.4574 10.8462C11.8623 10.7278 11.3972 10.2627 11.2788 9.66763C11.25 9.52274 11.25 9.34849 11.25 9Z" stroke="#004EEB" stroke-width="1.5" stroke-linecap="round" stroke-linejoin="round"/>
</g>
</svg>
